<svg xmlns="http://www.w3.org/2000/svg" fill="none" viewBox="0 0 32 32" id="Circle">
  <path fill="url(#paint0_radial_18590_3104)" d="M29.5474 16C29.5474 23.732 23.2794 30 15.5474 30C7.81538 30 1.54736 23.732 1.54736 16C1.54736 8.26801 7.81538 2 15.5474 2C23.2794 2 29.5474 8.26801 29.5474 16Z"></path>
  <path fill="url(#paint1_linear_18590_3104)" d="M29.5474 16C29.5474 23.732 23.2794 30 15.5474 30C7.81538 30 1.54736 23.732 1.54736 16C1.54736 8.26801 7.81538 2 15.5474 2C23.2794 2 29.5474 8.26801 29.5474 16Z"></path>
  <path fill="url(#paint2_radial_18590_3104)" d="M29.5474 16C29.5474 23.732 23.2794 30 15.5474 30C7.81538 30 1.54736 23.732 1.54736 16C1.54736 8.26801 7.81538 2 15.5474 2C23.2794 2 29.5474 8.26801 29.5474 16Z"></path>
  <path fill="url(#paint3_radial_18590_3104)" d="M29.5474 16C29.5474 23.732 23.2794 30 15.5474 30C7.81538 30 1.54736 23.732 1.54736 16C1.54736 8.26801 7.81538 2 15.5474 2C23.2794 2 29.5474 8.26801 29.5474 16Z"></path>
  <path fill="url(#paint4_radial_18590_3104)" d="M29.5474 16C29.5474 23.732 23.2794 30 15.5474 30C7.81538 30 1.54736 23.732 1.54736 16C1.54736 8.26801 7.81538 2 15.5474 2C23.2794 2 29.5474 8.26801 29.5474 16Z"></path>
  <defs>
    <radialGradient id="paint0_radial_18590_3104" cx="0" cy="0" r="1" gradientTransform="rotate(130.168 9.831 9.886)scale(27.8086)" gradientUnits="userSpaceOnUse">
      <stop stop-color="#656565" class="stopColor645b70 svgShape"></stop>
      <stop offset=".662" stop-color="#333333" class="stopColor33293d svgShape"></stop>
    </radialGradient>
    <radialGradient id="paint2_radial_18590_3104" cx="0" cy="0" r="1" gradientTransform="matrix(-9.47663 8.74999 -8.07914 -8.75007 24.227 10.75)" gradientUnits="userSpaceOnUse">
      <stop offset=".113" stop-color="#6b6b6b" class="stopColor6a6571 svgShape"></stop>
      <stop offset="1" stop-color="#494949" stop-opacity="0" class="stopColor49474c svgShape"></stop>
    </radialGradient>
    <radialGradient id="paint3_radial_18590_3104" cx="0" cy="0" r="1" gradientTransform="matrix(-19.25 0 0 -20 20.04 16)" gradientUnits="userSpaceOnUse">
      <stop offset=".62" stop-color="#434343" stop-opacity="0" class="stopColor434344 svgShape"></stop>
      <stop offset=".951" stop-color="#ffffff" class="stopColor8c8b8d svgShape"></stop>
    </radialGradient>
    <radialGradient id="paint4_radial_18590_3104" cx="0" cy="0" r="1" gradientTransform="matrix(0 21.8837 -24.3022 0 15.547 9)" gradientUnits="userSpaceOnUse">
      <stop offset=".853" stop-color="#333333" stop-opacity="0" class="stopColor352343 svgShape"></stop>
      <stop offset="1" stop-color="#4f4f4f" class="stopColor50405f svgShape"></stop>
    </radialGradient>
    <linearGradient id="paint1_linear_18590_3104" x1="15.547" x2="15.547" y1="2" y2="8.5" gradientUnits="userSpaceOnUse">
      <stop stop-color="#565656" class="stopColor554a63 svgShape"></stop>
      <stop offset="1" stop-color="#565656" stop-opacity="0" class="stopColor554a63 svgShape"></stop>
    </linearGradient>
  </defs>
</svg>
